<?xml version="1.0" standalone="no"?>
<!DOCTYPE svg PUBLIC "-//W3C//DTD SVG 20010904//EN"
 "http://www.w3.org/TR/2001/REC-SVG-20010904/DTD/svg10.dtd">
<svg version="1.0" xmlns="http://www.w3.org/2000/svg"
 width="203.000000pt" height="202.000000pt" viewBox="0 0 203.000000 202.000000"
 preserveAspectRatio="xMidYMid meet">

<g transform="translate(2.000000,211.000000) scale(0.095,-0.095)"
fill="#3f3d56" stroke="none">
<path d="M915 1869 l-76 -73 73 -73 c64 -65 77 -73 110 -73 57 0 103 -44 103
-99 0 -37 6 -47 66 -107 58 -58 71 -66 109 -68 104 -8 140 -144 50 -191 -37
-19 -80 -19 -108 1 -32 22 -54 71 -47 102 5 23 -4 36 -60 92 l-65 64 0 -175
c0 -174 0 -176 25 -199 51 -48 38 -132 -26 -166 -43 -22 -91 -11 -123 27 -36
42 -35 89 4 132 l30 35 0 175 0 175 -30 30 c-24 25 -30 39 -30 74 0 41 -5 48
-70 113 l-70 70 -210 -211 c-192 -192 -210 -213 -210 -244 0 -32 24 -58 313
-347 290 -290 315 -313 347 -313 32 0 57 23 349 314 l314 314 -6 38 c-6 34
-41 73 -310 341 -366 367 -339 352 -452 242z"/>
</g>
<g transform="translate(4.000000,209.000000) scale(0.095,-0.095)"
fill="#2e8555" stroke="none">
<path d="M915 1869 l-76 -73 73 -73 c64 -65 77 -73 110 -73 57 0 103 -44 103
-99 0 -37 6 -47 66 -107 58 -58 71 -66 109 -68 104 -8 140 -144 50 -191 -37
-19 -80 -19 -108 1 -32 22 -54 71 -47 102 5 23 -4 36 -60 92 l-65 64 0 -175
c0 -174 0 -176 25 -199 51 -48 38 -132 -26 -166 -43 -22 -91 -11 -123 27 -36
42 -35 89 4 132 l30 35 0 175 0 175 -30 30 c-24 25 -30 39 -30 74 0 41 -5 48
-70 113 l-70 70 -210 -211 c-192 -192 -210 -213 -210 -244 0 -32 24 -58 313
-347 290 -290 315 -313 347 -313 32 0 57 23 349 314 l314 314 -6 38 c-6 34
-41 73 -310 341 -366 367 -339 352 -452 242z"/>
</g>
</svg>
