<?xml version="1.0" encoding="UTF-8"?><svg id="Layer_1" xmlns="http://www.w3.org/2000/svg" viewBox="0 0 512 512"><defs><style>.cls-1{fill-rule:evenodd;}</style></defs><path class="cls-1" d="M358.58,246.17c0-8.21,6.41-14.23,13.88-14.23s13.88,6.57,13.88,14.23c0,8.21-6.41,14.23-13.88,14.23s-13.88-6.57-13.88-14.23ZM84.63,356.7c-8.01,0-13.88-6.57-13.88-14.23,0-8.21,6.41-14.23,13.88-14.23s13.88,6.57,13.88,14.23-6.41,14.23-13.88,14.23ZM171.67,195.29v-36.66h135.11v36.66c0,38.3-30.44,69.49-67.82,69.49s-67.29-31.19-67.29-69.49ZM429.07,281.19c-11.75,0-21.36,8.21-24.03,19.7h-27.23v-30.09c11.21-2.19,19.22-12.58,19.22-24.62,0-13.68-10.68-25.17-24.56-25.17s-24.56,10.94-24.56,25.17c0,12.04,8.01,21.89,19.22,24.62v66.2h-122.82v-62.37c40.59-2.74,72.63-37.21,72.63-79.34v-47.6h-36.31v-54.17h-10.15v54.17h-63.01v-54.17h-10.15v54.17h-36.31v47.05c0,42.13,32.04,76.6,72.63,79.34v62.37h-71.02v-23.53c11.21-2.19,19.22-12.58,19.22-24.62,0-13.68-10.68-25.17-24.56-25.17s-24.56,10.94-24.56,25.17c0,12.04,8.01,21.89,19.22,24.62v23.53h-43.79c-2.14-11.49-12.28-19.7-24.03-19.7-13.35,0-24.56,10.94-24.56,25.17s11.21,25.17,25.1,25.17c11.75,0,21.36-8.21,24.03-19.7h201.32v23.53c-11.21,2.19-19.22,12.58-19.22,24.62,0,13.68,10.68,25.17,24.56,25.17s24.56-10.94,24.56-25.17c0-12.04-8.01-21.89-19.22-24.62v-23.53h58.21v-36.11h27.23c2.14,11.49,12.28,19.7,24.03,19.7,13.35,0,24.56-10.94,24.56-25.17s-12.28-24.62-25.63-24.62Z"/></svg>