<?xml version="1.0" encoding="UTF-8"?><svg id="Layer_1" xmlns="http://www.w3.org/2000/svg" viewBox="0 0 512 512"><defs><style>.cls-1{fill-rule:evenodd;}</style></defs><path class="cls-1" d="M256.31,362.66l-22.71-20.61,22.21-47.4,22.71,47.92-22.21,20.09ZM312.33,413.67l-48.96-44.31,19.68-17.52,29.27,61.83ZM199.78,414.19l29.27-62.34,19.68,18.03-48.96,44.31ZM242.68,179.24c0-7.73,6.06-13.4,13.12-13.4s13.12,6.18,13.12,13.4c0,7.73-6.06,13.4-13.12,13.4s-13.12-5.67-13.12-13.4ZM260.85,268.89c10.6-2.06,18.17-11.85,18.17-23.19s-7.57-20.61-18.17-23.19v-20.61c10.6-2.06,18.17-11.85,18.17-23.19s-7.57-20.61-18.17-23.19v-20.61c10.6-2.06,18.17-11.85,18.17-23.19,0-12.88-10.09-23.7-23.22-23.7s-23.22,10.3-23.22,23.7c0,11.34,7.57,20.61,18.17,23.19v20.61c-10.6,2.06-18.17,11.85-18.17,23.19s7.57,20.61,18.17,23.19v20.61c-10.6,2.06-18.17,11.85-18.17,23.19s7.57,20.61,18.17,23.19v13.4l-80.75,172.09,86.31-78.32,86.31,78.32-81.76-172.09v-13.4Z"/><path class="cls-1" d="M212.55,292.31l3.61-9.25c-42.76-16.44-71.62-58.04-71.62-103.76,0-61.13,49.98-110.95,111.29-110.95s111.29,49.83,111.29,110.95c0,45.72-28.85,87.32-71.1,103.76l3.61,9.25c46.37-17.98,77.28-63.18,77.28-113.01,0-66.26-54.1-120.71-121.08-120.71s-121.08,54.45-121.08,120.71c0,49.83,31.43,95.03,77.8,113.01Z"/><path class="cls-1" d="M219.97,131.03l-6.06-7.68c-16.66,13.82-26.25,33.79-26.25,55.3s9.59,41.99,26.25,55.3l6.06-7.68c-14.13-11.78-22.71-29.19-22.71-47.62s8.58-35.84,22.71-47.62Z"/><path class="cls-1" d="M293.66,226.27l6.06,7.68c16.66-13.83,26.25-33.79,26.25-55.3s-9.59-41.99-26.25-55.3l-6.06,7.68c14.13,11.78,22.71,29.19,22.71,47.62s-8.08,36.35-22.71,47.62Z"/></svg>