<?xml version="1.0" encoding="UTF-8"?><svg id="Layer_1" xmlns="http://www.w3.org/2000/svg" viewBox="0 0 512 512"><defs><style>.cls-1{fill-rule:evenodd;}</style></defs><path class="cls-1" d="M410.35,230.22c-12.31,2.36-21.11,13.57-21.11,26.56s8.79,23.6,21.11,26.56v110.35h-94.98v-26.56c12.31-2.36,21.11-13.57,21.11-26.56s-8.79-23.6-21.11-26.56v-31.28c12.31-2.36,21.11-13.57,21.11-26.56s-8.79-23.6-21.11-26.56v-26.56h94.98v27.15ZM431.46,256.19c0,8.85-7.04,15.34-15.24,15.34-8.79,0-15.24-7.08-15.24-15.34,0-8.85,7.04-15.34,15.24-15.34s15.24,7.08,15.24,15.34ZM435.56,442.07H77.34v-37.18h358.22v37.18ZM103.13,366.54c12.31-2.36,21.11-13.57,21.11-26.56s-8.79-23.6-21.11-26.56v-109.76h94.98v26.56c-12.31,2.36-21.11,13.57-21.11,26.56s8.79,23.6,21.11,26.56v31.28c-12.31,2.36-21.11,13.57-21.11,26.56s8.79,23.6,21.11,26.56v26.56h-94.98v-27.74ZM203.39,324.64c8.79,0,15.24,7.08,15.24,15.34,0,8.85-7.04,15.34-15.24,15.34-8.79,0-15.24-7.08-15.24-15.34s7.04-15.34,15.24-15.34ZM304.23,230.22c-12.31,2.36-21.11,13.57-21.11,26.56s8.79,23.6,21.11,26.56v31.28c-12.31,2.36-21.11,13.57-21.11,26.56s8.79,23.6,21.11,26.56v26.56h-94.98v-26.56c12.31-2.36,21.11-13.57,21.11-26.56s-8.79-23.6-21.11-26.56v-31.28c12.31-2.36,21.11-13.57,21.11-26.56s-8.79-23.6-21.11-26.56v-26.56h94.98v26.56ZM309.51,272.12c-8.79,0-15.24-7.08-15.24-15.34,0-8.85,7.04-15.34,15.24-15.34,8.79,0,15.24,7.08,15.24,15.34.59,8.26-6.45,15.34-15.24,15.34ZM77.34,154.69h358.22v37.18H77.34v-37.18ZM415.04,143.47H98.44l158.3-71.4,158.3,71.4ZM446.7,203.67v-58.42l-189.96-86.16-190.54,86.16v58.42h25.21v110.35c-12.31,2.36-21.11,13.57-21.11,26.56s8.79,23.6,21.11,26.56v26.56h-25.21v60.19h380.5v-60.78h-25.21v-110.35c12.31-2.36,21.11-13.57,21.11-26.56s-8.79-23.6-21.11-26.56v-26.56h25.21v.59Z"/></svg>