<?xml version="1.0" encoding="UTF-8"?><svg id="Layer_1" xmlns="http://www.w3.org/2000/svg" viewBox="0 0 512 512"><defs><style>.cls-1{stroke-width:.5px;}.cls-1,.cls-2{fill:#009051;}.cls-1,.cls-3{stroke:#000;stroke-miterlimit:10;}.cls-3{fill:#fff;}</style></defs><path class="cls-2" d="M403.91,158.48c.03.69,0,1.38-.08,2.07,25.91.41,46.78,21.53,46.78,47.53s-21.29,47.55-47.55,47.55c-.13,0-.26,0-.39,0,0,0,0,0,0,0h-47.8c.09.68.13,1.36.11,2.05h47.73s0,.01,0,.02c.11,0,.23,0,.34,0,27.41,0,49.62-22.22,49.62-49.62s-21.76-49.15-48.77-49.6Z"/><path class="cls-2" d="M175.13,158.26c.15.65.25,1.31.29,1.97h35.61c-.04-.66-.03-1.32.03-1.97h-35.93Z"/><path class="cls-2" d="M162.57,254.88h-49.32s0-.01,0-.02c-.11,0-.23,0-.34,0-27.41,0-49.62,22.22-49.62,49.62s21.76,49.15,48.77,49.6c-.03-.69,0-1.38.08-2.07-25.91-.41-46.78-21.53-46.78-47.53s21.29-47.55,47.55-47.55c.13,0,.26,0,.39,0,0,0,0,0,0,0h49.17c-.02-.68.01-1.37.1-2.05Z"/><path class="cls-2" d="M306.03,352.41c.04.66.03,1.32-.03,1.97h46.3c-.04-.66-.03-1.32.03-1.97h-46.3Z"/><rect class="cls-3" x="210.6" y="121.88" width="193.74" height="75.79" rx=".36" ry=".36"/><circle cx="337.04" cy="159.77" r="8.63"/><circle cx="374.28" cy="159.77" r="8.63"/><rect x="232.03" y="150.3" width="78.92" height="18.94" rx="1.23" ry="1.23" transform="translate(542.98 319.55) rotate(-180)"/><rect class="cls-3" x="161.86" y="217.61" width="193.74" height="75.79" rx=".36" ry=".36" transform="translate(517.45 511) rotate(-180)"/><circle cx="229.15" cy="255.5" r="8.63"/><circle cx="191.91" cy="255.5" r="8.63"/><rect x="255.24" y="246.03" width="78.92" height="18.94" rx="1.23" ry="1.23"/><rect class="cls-3" x="112.92" y="313.33" width="193.74" height="75.79" rx=".36" ry=".36"/><circle cx="239.37" cy="351.23" r="8.63"/><circle cx="276.6" cy="351.23" r="8.63"/><rect x="134.35" y="341.76" width="78.92" height="18.94" rx="1.23" ry="1.23" transform="translate(347.63 702.45) rotate(-180)"/><path class="cls-1" d="M162.21,166.54l12.34-3.64c.06-.97.1-1.96.1-2.94s-.04-1.97-.1-2.94l-12.34-3.64-1.16-.34c-.55-2.8-1.44-5.49-2.6-8.01l.75-.97,7.84-10.18c-1.06-1.66-2.21-3.26-3.45-4.77l-12.14,4.32-1.14.41c-2.06-1.91-4.34-3.57-6.81-4.95l.03-1.22.36-12.86c-1.81-.71-3.68-1.34-5.59-1.83l-7.28,10.63-.69,1c-1.38-.16-2.78-.26-4.21-.26s-2.83.09-4.21.26l-.69-1-7.28-10.63c-1.91.49-3.78,1.11-5.59,1.83l.36,12.86.03,1.22c-2.47,1.38-4.75,3.05-6.81,4.95l-1.14-.41-12.14-4.32c-1.25,1.51-2.39,3.11-3.45,4.77l7.84,10.18.75.97c-1.17,2.53-2.05,5.21-2.6,8.01l-1.16.34-12.34,3.64c-.06.97-.1,1.96-.1,2.94s.04,1.97.1,2.94l12.34,3.64,1.16.34c.55,2.8,1.44,5.49,2.6,8.01l-.75.97-7.84,10.18c1.06,1.66,2.21,3.26,3.45,4.77l12.14-4.32,1.14-.41c2.06,1.91,4.34,3.57,6.81,4.95l-.03,1.22-.36,12.86c1.81.71,3.68,1.33,5.59,1.83l7.28-10.63.69-1c1.38.16,2.78.26,4.21.26s2.83-.09,4.21-.26l.69,1,7.28,10.63c1.91-.49,3.78-1.11,5.59-1.83l-.36-12.86-.03-1.22c2.47-1.38,4.75-3.05,6.81-4.95l1.14.41,12.14,4.32c1.25-1.51,2.39-3.11,3.45-4.77l-7.84-10.18-.75-.97c1.17-2.53,2.05-5.21,2.6-8.01l1.16-.34ZM126.12,181.25c-11.76,0-21.29-9.53-21.29-21.29s9.53-21.29,21.29-21.29,21.29,9.53,21.29,21.29-9.53,21.29-21.29,21.29Z"/><circle class="cls-1" cx="401.97" cy="352.41" r="49.72"/><path class="cls-3" d="M422.43,331.09c1.99.74,5.95,5.58,7.61,7.27-3.89,5.12-8.94,9.75-13.4,14.4l-19.82,20.98-15.03-15.17c-2.71-2.82-5.33-5.67-7.88-8.65l6.7-6.97c5.28,5.05,10.46,10.23,15.68,15.34,3.5-3.92,7.32-7.59,10.96-11.38,5.06-5.28,9.98-10.69,15.19-15.82Z"/></svg>