<?xml version="1.0" encoding="UTF-8"?><svg id="Layer_1" xmlns="http://www.w3.org/2000/svg" viewBox="0 0 512 512"><defs><style>.cls-1{fill:#009051;stroke-width:.5px;}.cls-1,.cls-2,.cls-3{stroke:#000;stroke-miterlimit:10;}.cls-2,.cls-4{fill:#fff;}.cls-3{fill:none;fill-rule:evenodd;}</style></defs><path class="cls-1" d="M110.7,169.15h23.63c2.27,0,4.11,1.84,4.11,4.11v19.54c0,2.27-1.84,4.11-4.11,4.11h-23.63c-2.27,0-4.11-1.84-4.11-4.11v-19.54c0-2.27,1.84-4.11,4.11-4.11Z" transform="translate(-93.55 140.28) rotate(-45.01)"/><path class="cls-1" d="M143.51,135.43h25.43c2.27,0,4.11,1.84,4.11,4.11v19.54c0,2.27-1.84,4.11-4.11,4.11h-25.43c-2.27,0-4.11-1.84-4.11-4.11v-19.54c0-2.27,1.84-4.11,4.11-4.11Z" transform="translate(-59.82 154.24) rotate(-45.01)"/><path class="cls-1" d="M253.04,150.96c-10.23,2.39-19.52,6.67-27.64,11.6l-13.14-13.15c-1.6-1.6-1.6-4.23,0-5.82l13.8-13.8c1.64-1.6,4.22-1.6,5.82,0l21.17,21.17Z"/><path class="cls-1" d="M328.69,149.41l-13.09,13.1c-8.12-4.88-17.46-9.16-27.69-11.55l21.17-21.17c1.6-1.6,4.22-1.6,5.82,0l13.8,13.8c1.6,1.6,1.6,4.23,0,5.82Z"/><path class="cls-1" d="M194,87.72c-13.14,0-23.79,10.66-23.79,23.8,0,13.14,10.65,23.8,23.79,23.8,13.14,0,23.79-10.66,23.79-23.8s-10.65-23.8-23.79-23.8Z"/><path class="cls-1" d="M389.57,64.42l-56.39,11.93c-2.92.62-3.99,4.22-1.88,6.33l12.42,12.43-15.96,15.96c-1.6,1.61-1.6,4.21,0,5.81l13.81,13.82c1.6,1.61,4.21,1.61,5.81,0l15.96-15.96,12.42,12.43c2.11,2.11,5.71,1.04,6.33-1.88l11.92-56.42c.56-2.66-1.79-5.02-4.45-4.45Z"/><rect x="60.02" y="280" width="124.82" height="42.09" transform="translate(423.47 178.61) rotate(90)"/><path d="M339.09,186.16c5.93,7.54,10.66,16.15,13.85,25.62.32.96.32,2.02,0,2.98-5.89,17.52-17.05,32.14-31.37,42.37v104.18h43.67v-175.15h-26.15Z"/><path d="M248.7,269.92v102.6h42.09v-101.58c-6.15,1.4-12.51,2.14-19.01,2.14-7.94,0-15.69-1.1-23.08-3.16Z"/><path d="M195.61,226.54h-20.57v124.82h42.09v-97.97c-8.81-7.3-16.16-16.4-21.52-26.85Z"/><path class="cls-3" d="M271.78,265.1c-31.91,0-60.18-20.32-70.36-50.54-.28-.83-.28-1.75,0-2.59,10.17-30.24,38.45-50.54,70.36-50.54s60.17,20.31,70.35,50.54c.28.83.28,1.75,0,2.59-10.16,30.23-38.45,50.54-70.35,50.54h0ZM209.54,213.27c9.44,26.21,34.26,43.73,62.24,43.73s52.79-17.52,62.23-43.73c-9.44-26.22-34.26-43.74-62.23-43.74s-52.8,17.52-62.24,43.74Z"/><ellipse cx="271.77" cy="213.27" rx="33.62" ry="33.64"/><ellipse class="cls-4" cx="271.77" cy="213.27" rx="9.52" ry="9.53"/><rect class="cls-2" x="82.16" y="349.52" width="307.54" height="32.69"/><path class="cls-1" d="M390.66,366.62c-11.58,0-22.03,4.77-29.54,12.43,0,0-.01,0-.02-.01-.15.15-.29.3-.43.45-.37.38-.74.77-1.09,1.16-.22.25-.44.5-.66.76-.27.32-.54.64-.8.97-5.64,7.05-9.03,16-9.03,25.73,0,.8.06,1.58.1,2.36-.01-.19-.04-.37-.05-.55-1.13,12.24-11.36,21.84-23.9,21.84-13.3,0-24.08-10.78-24.08-24.07s10.78-24.07,24.08-24.07c12.56,0,22.65,9.51,23.75,21.78.47-8.74,3.79-16.64,8.86-23.11-7.57-9.7-19.36-15.95-32.62-15.95-22.84,0-41.36,18.52-41.36,41.36s18.52,41.36,41.36,41.36c13.16,0,24.88-6.16,32.45-15.75,0,0,0,.01.01.02.06-.07.11-.15.16-.23.01-.01.08-.09.07-.09,0,0,0-.01.02-.02,0,0,0,0,0,0,4.96-6.55,7.99-14.62,8.3-23.39-.03-.53-.05-1.05-.05-1.57.02.53.07,1.07.08,1.6.2-11.05,8.06-21.73,18.42-24.81.17-.04.34-.1.52-.13.12-.03.23-.06.35-.08.03,0,.06-.01.09-.02-.07,0-.13,0-.2,0,1.68-.43,3.42-.68,5.2-.68,13.3,0,24.08,10.78,24.08,24.07s-10.78,24.07-24.08,24.07-23.82-10.55-24.05-23.64c-.1,9.37-3.31,17.98-8.65,24.87,7.56,9.76,19.39,16.05,32.7,16.05,22.84,0,41.36-18.52,41.36-41.36s-18.52-41.36-41.36-41.36Z"/></svg>