<?xml version="1.0" encoding="UTF-8"?><svg id="Layer_1" xmlns="http://www.w3.org/2000/svg" viewBox="0 0 512 512"><defs><style>.cls-1,.cls-2{fill:#009051;}.cls-1,.cls-3{stroke:#000;stroke-miterlimit:10;stroke-width:.5px;}.cls-3{fill:#fff;}</style></defs><path class="cls-1" d="M211.73,88.98c9.25,12.51,10.85,19.18,7.21,29.77-1.06,3.07-1.52,7.44-1.44,12.89,3.49,1.23,7.21,2.15,11.15,3.07,0,0,5.01,1.23,5.92,1.46,15.09,3.84,23.89,13.2,30.49,21.87,0,0,.76,1,.91,1.23,1.9-.69,3.72-1.15,5.54-1.53.38-.84.76-2.23.83-3.68.3-3.3-1.21-4.83-2.5-5.83-1.37-1.07-2.28-2.61-2.5-4.3-.3-1.76.15-3.45,1.14-4.91,2.2-2.92,6.22-3.53,9.1-1.38,3.94,2.99,6.45,6.83,7.36,11.51.53-.77.83-1.3.91-1.53l.15-.15c1.52-3.22,5.46-4.6,8.65-2.99,1.59.77,2.73,2.07,3.34,3.76.53,1.61.46,3.38-.3,4.99-.08.08-7.2,15.54-24.54,17.57,3.29,6.4,5.42,12.79,6.34,19.19h6.29c2.46,0,4.87-.28,7.18-.82,14.96-3.47,23.29-19.74,18.42-34.47-9.27-28.05-28.64-51.44-53.75-65.77.03.43-.07,1.4-.2,2.53-.73,6.37,2.51,12.71,8.34,15.22.07.03.15.06.22.09,3.56,1.46,5.23,5.6,3.79,9.28-1.44,3.61-5.54,5.37-9.18,3.84-3.56-1.53-6.67-3.53-9.33-5.91-.61.77-1.29,1.46-1.97,2.07-2.73,2.61-7.05,2.53-9.71-.23-.08,0-.15-.15-.23-.23-1.21-1.38-1.9-3.15-1.82-4.99.08-1.92.91-3.68,2.28-4.99,1.74-1.61,3.62-9.02,3.77-12.94.15-3.15-.23-6.98-1.06-10.9-9.71-3.91-20.02-6.45-30.79-7.52-.3.15-.61.23-.83.31-1.82.69-2.96,1.76-3.41,3.15-.76,2.53.76,6.45,4.25,11.28Z"/><path class="cls-1" d="M219.75,219.83c12.43,3.2,26.42-1.21,35.37-6.39,7.36-4.31,10.58-11.07,9.57-20.1-.97-8.41-4.88-17.15-11.62-25.97-5.24-6.9-11.54-13.66-22.16-16.38-1.54-.39-3.09-.76-4.64-1.13-6.8-1.63-13.83-3.32-20.28-6.41-1.62-.77-6.41-3.21-7.17-3.59-.6.78-1.26,1.58-1.98,2.41-2.36,2.66-4.5,5.97-6.39,9.86.04.06-.14,3.62,2.24,5.6,1.58,1.32,3.42,1.97,3.44,1.97,3.11.99,4.86,4.37,3.88,7.52-.99,3.15-4.32,4.91-7.41,3.91-.4-.12-.61-.18-.81-.28-2.29-.79-4.7-2.2-6.73-3.94-.39,1.53-.6,2.53-.63,2.71-.29,1.51-1.11,2.74-2.34,3.54-1.31.85-2.9,1.11-4.48.71-3.14-.77-5.21-3.89-4.63-6.95.15-.79,3.7-19.13,14.08-31.53-1.6-.31-3.14-.47-4.66-.47-5.68.03-8.99,3.86-12.5,7.92-.5.58-1,1.16-1.51,1.73-6.06,6.73-12.98,9.26-20.99,12.2l-1.15.42c-8.33,3.04-8.07,10.93-7.17,15.36.95,4.73,3.21,7.71,8.08,10.63,9.9,5.99,22.28,8.46,32.31,6.45,4.45-.91,7.75,3.53,10.41,7.09.58.77,1.12,1.5,1.62,2.1,5.55-7.48,13.86-12.23,24.7-14.15,8.96-1.57,11.58-3.67,12.21-4.33-.21-.44-.78-1.25-1.24-1.62-2.49-2.16-2.82-5.94-.74-8.46,1.02-1.23,2.46-1.99,4.05-2.12,1.59-.11,3.11.36,4.3,1.4.05.04,7.28,5.92,5.16,13.87-1.39,5.11-5.96,8.8-13.95,11.27,1.27,1.66,2.23,3.6,2.89,5.76.46,1.53.3,3.15-.45,4.56-.71,1.34-1.86,2.33-3.27,2.82h-.01s-.27.12-.27.12c-3.16.92-6.37-.84-7.31-4-.48-1.51-1.38-3.16-4.27-3.89-2.02-.52-4.71-.23-5.08-.26-3.57,1.96-6.38,4.61-8.37,7.91,1.21,1.16,2.45,2.28,3.71,3.32,5.53,4.57,10.82,7.45,16.19,8.82Z"/><path class="cls-1" d="M89.87,157.59c-.6,3.22,3.09,5.32,5.57,3.21,3.63-3.08,8.02-5.57,13.14-7.44,4.4-1.61,9.48-2.61,15.02-3.07l6.98-.61c2.88-3.07,6.45-5.37,10.54-6.83l.99-.38c7.58-2.76,11.76-4.37,15.09-8.13,0,0,1.14-1.3,1.44-1.69,1.9-2.23,4.78-5.52,8.57-8.21-.08-2.38.61-7.6.61-7.9.23-1.76.15-4.07-2.65-6.37-1.9-1.53-4.02-2.3-4.02-2.3-1.67-.54-3.11-1.69-3.94-3.3-.83-1.61-1.06-3.45-.53-5.14,1.06-3.61,4.85-5.6,8.34-4.53,1.44.46,6.07,2.15,10.16,6.06l.08-.08c1.06-1.46,2.65-2.38,4.4-2.61,1.82-.23,3.56.31,5.01,1.38,1.37,1.07,2.28,2.69,2.5,4.45.23,1.84-.23,3.61-1.29,5.06-2.58,3.38-4.17,6.91-4.78,10.51h1.21c7.89,0,14.64,2.46,20.25,5.14.38-4.3,1.06-7.9,2.12-11.05.53-1.61.91-2.84.91-4.14,0-2.46-1.37-5.29-5.99-11.59-4.53-6.26-7.56-14.15-8.13-20.52-.17-1.89-1.88-3.28-3.75-3.08-7.85.85-15.42,2.49-22.7,4.88-.23,0-.38.08-.61.15-17.37,5.6-32.99,15.27-45.73,27.93,1.14,1,2.12,1.99,3.03,2.99.99.69,5.39,3.07,11.91.31,1.59-.69,3.34-.69,4.93,0,1.59.69,2.81,1.92,3.49,3.53.61,1.61.61,3.38,0,4.99-.68,1.53-1.9,2.84-3.49,3.45-3.19,1.38-6.37,2.15-9.56,2.3.08.84.08,1.69,0,2.46-.08,3.53-2.88,6.22-6.37,6.22h-.23c-3.56-.15-6.3-3.22-6.14-6.75.08-2.07-1.06-4.45-3.41-7.06,0,0-1.9-2.07-2.96-2.84-12.76,12.49-17.92,29.52-20,40.6Z"/><path class="cls-1" d="M175.96,251.5c4.7-8.25,12.03-19.43,20.62-26.66-.86-.64-1.74-1.32-2.59-2.01-3.62-3.02-7.26-6.57-11.12-10.87,0,0-5.41-6.52-5.49-6.63-12.54,1.15-26.69-2.21-37.95-9.04-3.45-2.09-8.45-5.58-11.88-11.72-1.53-2.76-2.63-5.78-3.27-8.98-.69-3.48-.89-6.84-.6-10.01-3.81.38-7.13,1.09-9.89,2.09-6.65,2.45-11.05,6.07-13.47,11.09-3.96,8.25-2.12,19.06-.17,30.51l.87,4.22c.36,1.73,2.02,2.86,3.74,2.53,2.18-.42,7.22-1.85,7.32-1.93,1.2-.92,2.51-2.34,2.22-5.39-.2-2.07-1.06-3.85-1.07-3.86-.73-1.41-.88-3.04-.4-4.57.47-1.53,1.51-2.79,2.92-3.53,2.88-1.5,6.46-.37,7.99,2.54.06.1.31.67.31.67,1.08,2.26,1.8,5,2.05,7.71.91-.55,2.31-1.43,2.42-1.49,1.16-.81,2.58-1.08,3.96-.8,1.52.32,2.89,1.3,3.76,2.71,1.66,2.82.94,6.49-1.6,8.21-1.27.86-6.15,4.03-12.8,6.96-2.6,1.14-2.64,4.74-.18,6.15,2.61,1.5,5.18,3.63,7.49,6.96,4.6,6.62,11.09,9.53,19.27,8.65l1.64-.18-.68,1.52c-4.57,10.26-7.73,20.45-9.21,25.62-.25.87-.08,1.79.45,2.51.54.73,1.37,1.14,2.27,1.14h20c1.24,0,2.33-.8,2.7-2,1.16-3.83,3.9-10.77,10.37-22.1Z"/><path class="cls-3" d="M313.63,226.52v-30.98l-48.22,48.22h30.98c9.51,0,17.24-7.73,17.24-17.24Z"/><path class="cls-3" d="M408,192.67h-83.93v33.25c0,14.2-11.55,25.75-25.75,25.75h-34.71v132.25c0,9.5,7.77,17.28,17.28,17.28h127.11c9.5,0,17.28-7.77,17.28-17.28v-173.97c0-9.5-7.77-17.28-17.28-17.28Z"/><rect x="291.9" y="287.7" width="109.26" height="8.92"/><rect class="cls-2" x="291.9" y="316.69" width="109.26" height="8.92"/><path d="M340.18,258.71c.38,2.96.38,5.96,0,8.92h60.98v-8.92h-60.98Z"/><rect x="291.9" y="345.67" width="109.26" height="8.92"/><path d="M340.71,229.72c.38,2.96.38,5.96,0,8.92h60.98v-8.92h-60.98Z"/><path class="cls-3" d="M244.67,261.89v-30.98l-48.22,48.22h30.98c9.51,0,17.24-7.73,17.24-17.24Z"/><path class="cls-3" d="M339.03,228.03h-83.93v33.25c0,14.2-11.55,25.75-25.75,25.75h-34.71v132.25c0,9.5,7.77,17.28,17.28,17.28h127.11c9.5,0,17.28-7.77,17.28-17.28v-173.97c0-9.5-7.77-17.28-17.28-17.28Z"/><rect x="222.94" y="323.06" width="109.26" height="8.92"/><rect class="cls-2" x="222.94" y="352.05" width="109.26" height="8.92"/><path d="M271.22,294.08c.38,2.96.38,5.96,0,8.92h60.98v-8.92h-60.98Z"/><rect x="222.94" y="381.04" width="109.26" height="8.92"/><path d="M271.75,265.09c.38,2.96.38,5.96,0,8.92h60.98v-8.92h-60.98Z"/></svg>