<?xml version="1.0" encoding="UTF-8"?><svg id="Layer_1" xmlns="http://www.w3.org/2000/svg" viewBox="0 0 512 512"><defs><style>.cls-1{fill:#009051;}.cls-1,.cls-2,.cls-3{stroke:#000;stroke-miterlimit:10;}.cls-2{fill:#fff;}</style></defs><path class="cls-3" d="M421.98,132.79c-34.26,1.66-106.35-25.94-137.56-42.47-9.1-4.82-17.38-11.24-26.13-16.67-35.67,23.48-69.47,39.27-110.69,50.86-9.81,2.76-20.57,6.06-30.76,6.65-7.31.42-14.57-.73-21.71-2.17-.1,60.71,7.22,142.68,34.2,197.34,2.14,4.38,4.47,8.66,6.96,12.84,2.5,4.18,5.16,8.26,8,12.22,2.83,3.96,5.83,7.81,8.98,11.52,3.15,3.72,6.45,7.3,9.89,10.74,22.66,22.76,66.05,54.23,95.44,66.84,12.69-5,25.34-13.48,36.72-20.98,41.69-27.5,74.41-57.22,94.68-103.67,23.65-54.19,32.67-124.35,32-183.06ZM400.24,168.16c-2.61,31.64-6.91,62.5-14.52,93.34-20.83,84.53-54.48,112.88-126.79,156.66l-.78.02c-10.16-6.75-21-12.51-31.25-19.14-24.33-15.73-49.54-36.34-66.14-60.34-28.28-40.88-38.86-106.22-42.81-154.82-.62-7.57-2.81-21.98-1.54-29,.91-1.05,1.74-1.52,3.05-1.92,4.46-1.34,9.45-1.82,14.04-2.86,9.97-2.3,19.84-4.99,29.6-8.06,34.75-10.87,63.73-24.17,94.86-42.92.74.09,1.37.22,2.03.59,12.2,6.84,23.66,14.34,36.53,20.01,30.96,13.64,64.55,25.65,98.07,30.91,1.89.3,5.23,1.03,6.14,3.01,1.37,2.97-.22,11.19-.5,14.5Z"/><path class="cls-1" d="M258.49,109.23c9.17,5.21,18.33,10.53,27.83,15.13,31.6,15.28,71.61,29.1,106.31,34.62-2.34,34.44-6.76,69.04-15.83,102.41-7.56,27.81-17.34,58.74-35.48,81.66-9.1,11.5-20.33,21.5-31.66,30.74-7.98,6.48-16.22,12.61-24.71,18.4-8.49,5.79-17.22,11.21-26.17,16.27-4.52-3.71-15.29-8.93-20.96-12.55-16.52-10.52-31.81-21.97-46.15-35.33-10.82-10.09-20.75-20.86-28.41-33.59-25.95-43.13-36.69-116.57-38.45-166.38,46.5-8.82,92.99-27.36,133.68-51.35Z"/><path class="cls-2" d="M326.07,191.47c5.78,2.16,17.32,16.26,22.15,21.17-11.33,14.9-26.05,28.41-39.02,41.94l-57.74,61.12-43.78-44.18c-7.9-8.22-15.54-16.53-22.95-25.2l19.5-20.29c15.39,14.71,30.46,29.8,45.68,44.68,10.18-11.41,21.33-22.1,31.91-33.15,14.73-15.38,29.06-31.15,44.24-46.09Z"/></svg>