<?xml version="1.0" encoding="UTF-8"?><svg id="Layer_1" xmlns="http://www.w3.org/2000/svg" viewBox="0 0 512 512"><defs><style>.cls-1{fill:#009051;}.cls-1,.cls-2{stroke:#000;stroke-miterlimit:10;}.cls-2{fill:#fff;}</style></defs><path class="cls-1" d="M446.31,279.58c.22,17.03-13.56,31.13-30.58,31.28-9.39.09-17.83-4.02-23.55-10.56-.93-1.07-2.28-1.69-3.7-1.69h0c-2.71,0-4.9,2.19-4.9,4.9v89.17c0,7.89-6.4,14.29-14.29,14.29h-89.17c-2.71,0-4.9-2.19-4.9-4.9h0c0-1.42.62-2.77,1.69-3.7,6.54-5.72,10.64-14.16,10.56-23.55-.16-17.03-14.26-30.8-31.28-30.58-16.87.22-30.48,13.96-30.48,30.88,0,9.27,4.09,17.59,10.56,23.25,1.07.94,1.69,2.28,1.69,3.7h0c0,2.71-2.19,4.9-4.9,4.9h-89.17c-7.89,0-14.29-6.4-14.29-14.29v-89.17c0-2.71-2.19-4.9-4.9-4.9h0c-1.42,0-2.76.62-3.7,1.69-5.72,6.54-14.16,10.64-23.55,10.56-17.03-.16-30.8-14.26-30.58-31.28.22-16.87,13.96-30.48,30.88-30.48,9.27,0,17.59,4.09,23.25,10.56.94,1.07,2.28,1.69,3.7,1.69h0c2.71,0,4.9-2.19,4.9-4.9v-89.17c0-7.89,6.4-14.29,14.29-14.29h89.17c2.71,0,4.9-2.19,4.9-4.9h0c0-1.42-.62-2.76-1.69-3.7-6.54-5.72-10.64-14.16-10.56-23.55.16-17.03,14.26-30.8,31.28-30.58,16.87.22,30.48,13.96,30.48,30.88,0,9.27-4.09,17.59-10.56,23.25-1.07.94-1.69,2.28-1.69,3.7h0c0,2.71,2.19,4.9,4.9,4.9h89.17c7.89,0,14.29,6.4,14.29,14.29v89.17c0,2.71,2.19,4.9,4.9,4.9h0c1.42,0,2.77-.62,3.7-1.69,5.66-6.47,13.98-10.56,23.25-10.56,16.92,0,30.66,13.61,30.88,30.48Z"/><path class="cls-2" d="M177.06,228.68l10.23,7.24c-.55,3.52-.72,7.05-.47,10.54l-10.8,6.32c-2.2,1.1-3.23,3.68-2.39,5.99l4.06,11.14c.84,2.31,3.29,3.62,5.68,3.05l12.34-2.11c2.06,2.83,4.45,5.42,7.15,7.76l-3.17,12.13c-.78,2.34.32,4.88,2.55,5.92l10.75,5c2.23,1.04,4.89.24,6.17-1.86l7.24-10.23c3.52.55,7.05.72,10.54.47l6.32,10.8c1.1,2.2,3.68,3.23,5.99,2.39l11.14-4.06c2.31-.84,3.62-3.29,3.05-5.68l-2.11-12.33c2.83-2.06,5.42-4.45,7.76-7.15l12.13,3.17c2.34.78,4.88-.32,5.92-2.55l5-10.75c1.04-2.23.24-4.89-1.86-6.17l-10.23-7.24c.55-3.52.72-7.05.47-10.54l10.8-6.32c2.2-1.1,3.23-3.68,2.39-5.99l-4.06-11.14c-.84-2.31-3.29-3.62-5.68-3.05l-12.34,2.11c-2.06-2.83-4.45-5.42-7.15-7.76l3.17-12.13c.78-2.34-.32-4.88-2.55-5.92l-10.75-5c-2.23-1.04-4.89-.24-6.17,1.86l-7.24,10.23c-3.52-.55-7.05-.72-10.54-.47l-6.32-10.8c-1.1-2.2-3.68-3.23-5.99-2.39l-11.14,4.06c-2.31.84-3.62,3.29-3.05,5.68l2.11,12.34c-2.83,2.06-5.42,4.45-7.76,7.15l-12.13-3.17c-2.34-.78-4.88.32-5.92,2.55l-5,10.75c-1.04,2.23-.24,4.89,1.86,6.17ZM240.67,228.15c8.31,3.87,11.91,13.74,8.04,22.04-3.87,8.31-13.74,11.91-22.04,8.04-8.31-3.87-11.91-13.74-8.04-22.05,3.87-8.31,13.74-11.91,22.05-8.04Z"/><path d="M296.75,345.72l2.3-7.25c2.14-.33,4.21-.89,6.18-1.67l5.65,5.08c1.04,1.07,2.72,1.19,3.9.28l5.69-4.4c1.18-.91,1.49-2.57.72-3.85l-3.49-6.75c1.26-1.71,2.32-3.58,3.17-5.56l7.6-.4c1.49.02,2.77-1.08,2.96-2.56l.91-7.14c.19-1.48-.76-2.87-2.21-3.23l-5.6-1.78c.12-.04.24-.09.36-.13l-2.06-.61c-.33-2.06-.87-4.06-1.62-5.97l5.08-5.65c1.07-1.04,1.19-2.72.28-3.9l-4.4-5.69c-.35-.46-.83-.74-1.34-.92-.93-.55-2.11-.57-3.07.03l-6.46,3.49c-1.32-.94-2.72-1.78-4.2-2.49-.06.08-.13.15-.19.23-.49-.23-.96-.49-1.46-.7l-.53-7.59c0-1.49-1.13-2.75-2.62-2.91l-7.15-.79c-1.48-.16-2.86.81-3.19,2.27l-2.17,7.29c-2.13.37-4.2.96-6.15,1.78l-5.73-4.98c-1.06-1.05-2.74-1.14-3.91-.21l-5.62,4.5c-1.17.93-1.45,2.59-.65,3.86l3.61,6.68c-1.23,1.73-2.25,3.61-3.08,5.62l-7.59.53c-1.49,0-2.75,1.13-2.91,2.62l-.79,7.15c-.16,1.48.81,2.86,2.27,3.19l7.29,2.18c.33,1.93.87,3.8,1.58,5.59l-4.97,5.52c-.9.88-1.08,2.19-.59,3.3.08.49.23.97.56,1.39l4.5,5.62c.93,1.17,2.59,1.45,3.86.65l6.68-3.61c1.41,1,2.93,1.86,4.52,2.59.06-.08.12-.15.17-.22.19.09.37.2.57.28l.4,7.6c-.02,1.49,1.08,2.77,2.56,2.96l7.14.91c1.48.19,2.87-.76,3.23-2.21ZM282.26,295.12c8.52-6.83,20.96-5.45,27.78,3.07,2.91,3.63,4.31,7.97,4.33,12.28,0,0,.02,0,.03-.01-.05,5.86-2.6,11.64-7.59,15.5-8.64,6.68-21.05,5.09-27.73-3.55-2.84-3.68-4.17-8.04-4.11-12.35,0,0-.01,0-.02,0,.14-5.62,2.58-11.15,7.31-14.94Z"/></svg>