<?xml version="1.0" encoding="UTF-8"?><svg id="Layer_1" xmlns="http://www.w3.org/2000/svg" viewBox="0 0 512 512"><defs><style>.cls-1{fill:#009051;}.cls-1,.cls-2{stroke:#000;stroke-miterlimit:10;}.cls-2{fill:#fff;}</style></defs><path class="cls-1" d="M476.55,271.85c-6.13-19.26-14.89-30.24-26.06-32.63-18.68-4-38.49,17.3-38.69,17.51l-.37.4-.53.16c-.66.2-1.31.37-1.95.51-5.31,1.18-9.7.24-13.05-2.82-6.26-5.7-8.47-18.69-6.55-38.61,1.39-14.5,4.55-27.61,4.58-27.74l5.77-24.35c-.07-.56-.15-1.13-.22-1.69-.01-.09-.02-.18-.04-.26-.1-.72-.19-1.44-.29-2.16-.01-.08-.02-.17-.03-.25-.1-.71-.19-1.41-.29-2.11,0-.04,0-.07-.02-.11l-31.9,7.59c-.13.03-14.46,3.49-30.3,5.02-21.77,2.1-35.97-.31-42.22-7.16-3.76-4.12-4.62-9.66-2.55-16.47l.18-.58.44-.41c.06-.05,1.55-1.44,3.68-3.81,6.44-7.15,18.76-23.24,15.46-38.62-2.62-12.23-14.62-21.83-35.66-28.55-3.11-.16-35.16-1.31-47.03,16.28-6.58,9.76-5.89,23.78,2.05,41.69,1.32,1.9,10.66,16.04,4.88,26.25-1.81,3.19-4.88,5.57-9.17,7.14-6.63,2.44-16.17,2.96-28.6,1.51l-.13-.02-72.06-13.12c-.46.06-.93.13-1.39.19-.08.01-.15.02-.23.03-.64.09-1.29.18-1.93.27-.03,0-.07,0-.1.01l6.92,29.1c.03.12,3.18,13.19,4.58,27.64.89,9.21.88,16.91,0,23.11-1.01,7.18-3.19,12.35-6.54,15.4-3.76,3.43-8.82,4.21-15.02,2.32l-.53-.16-.37-.4c-.2-.21-20.03-21.47-38.71-17.46-11.16,2.39-19.92,13.34-26.04,32.53-.14,2.84-1.2,32.07,14.85,42.9,8.9,6,21.7,5.37,38.03-1.87,1.74-1.2,14.63-9.73,23.94-4.45,7.41,4.2,10.07,15.79,7.9,34.45l-.02.12-12.6,69.21c1.1.16,2.2.32,3.31.47.02,0,.03,0,.05,0,.34.05.67.09,1.01.14.04,0,.09.01.13.02.32.05.65.09.98.13.05,0,.1.01.15.02.31.04.63.09.95.13.06,0,.13.02.2.03.3.04.61.08.91.12.08.01.15.02.23.03.28.04.57.08.85.11.1.01.21.03.31.04.27.04.55.07.82.11.1.01.21.03.31.04.27.03.53.07.8.1.12.02.24.03.36.05.25.03.51.07.76.1.13.02.26.03.39.05.23.03.47.06.7.09.16.02.31.04.47.06.22.03.44.06.65.08.17.02.33.04.5.06.23.03.45.06.68.09.15.02.3.04.45.06.23.03.46.06.69.09.16.02.32.04.47.06.22.03.44.05.66.08l.5.06c.21.03.41.05.62.08.19.02.37.05.56.07.19.02.38.05.57.07.2.02.4.05.6.07.17.02.35.04.52.06.22.03.44.05.65.08.17.02.33.04.5.06.22.03.44.05.66.08.16.02.32.04.48.06.23.03.46.05.69.08.15.02.31.04.46.05.24.03.47.06.71.08.14.02.28.03.42.05.25.03.5.06.74.09.14.02.27.03.41.05.25.03.5.06.76.09l.38.04c.26.03.53.06.79.09.12.01.24.03.36.04.27.03.54.06.82.09.11.01.21.02.32.04.28.03.57.06.85.1.1.01.2.02.3.03.29.03.58.06.87.1.08,0,.17.02.25.03.31.03.62.07.94.1.06,0,.13.01.19.02.32.04.64.07.96.11.06,0,.12.01.17.02.33.04.66.07.99.11.05,0,.1.01.15.02.33.04.66.07,1,.11.05,0,.1.01.15.02.34.04.68.07,1.02.11.04,0,.07,0,.11.01.36.04.72.08,1.08.11.01,0,.03,0,.04,0,.37.04.74.08,1.11.12,0,0,.02,0,.02,0,34.47,3.62,64.72,5.52,66.96,5.66,2.97-.2,4.87-1.12,5.8-2.81,2.03-3.67-.47-10.45-2.39-14.37-.34-.7-.67-1.32-.95-1.8-1.43-1.59-2.64-3.19-3.68-4.77-4.45-6.75-5.62-13.22-5.61-18.17,0-.63.02-1.24.06-1.82.02-.3.04-.59.07-.88.03-.36.07-.72.11-1.06.02-.18.04-.36.07-.54.04-.26.07-.52.12-.77,0-.02,0-.05.01-.07,0-.06.02-.11.03-.17.03-.15.05-.3.08-.44.04-.22.08-.43.13-.64.05-.24.1-.47.15-.7,0-.02.01-.05.02-.07.07-.28.13-.56.2-.82,0,0,0-.01,0-.02.55-2.11,1.19-3.68,1.58-4.55.14-.31.25-.53.31-.65,5.23-12.7,15.2-21.06,29.08-24.49,2.57-.64,5.27-1.1,8.11-1.4,1.69-.18,3.34-.28,4.95-.34.8-.03,1.6-.04,2.37-.04.39,0,.77,0,1.15,0,.74,0,1.46.03,2.16.06,1.19.05,2.32.12,3.41.21,6.62.54,11.15,1.71,11.45,1.79l.15.04.15.04.26.16c.37.23.74.46,1.1.7,11.24,7.25,17.97,15.98,20.03,25.98.14.7.25,1.38.35,2.07.22,1.59.32,3.15.32,4.66-.05,11.19-5.67,19.64-6.36,20.63-.03.04-.05.07-.06.08l-.19.27-.28.2c-15.39,10.91-14.22,21.28-13.76,23.48.13.12.26.25.4.36,1.39,1.18,3.28,2.08,5.51,2.76.1.03.19.06.29.08.58.17,1.18.32,1.8.46.16.04.32.07.48.1.1.02.19.04.29.06,11.95,2.4,30.45-.02,38.91-1.66.18-.03.35-.07.51-.1h.06s68.67-11.64,68.67-11.64l-11.67-64.26v-.06c-2.18-18.73.49-30.36,7.91-34.55,9.31-5.26,22.19,3.27,23.92,4.48,16.31,7.25,29.1,7.89,37.99,1.9,16.09-10.84,15.04-40.2,14.89-43.05Z"/><path class="cls-2" d="M208.05,235.47l10.23,7.24c-.55,3.52-.72,7.05-.47,10.54l-10.8,6.32c-2.2,1.1-3.23,3.68-2.39,5.99l4.06,11.14c.84,2.31,3.29,3.62,5.68,3.05l12.34-2.11c2.06,2.83,4.45,5.42,7.15,7.76l-3.17,12.13c-.78,2.34.32,4.88,2.55,5.92l10.75,5c2.23,1.04,4.89.24,6.17-1.86l7.24-10.23c3.52.55,7.05.72,10.54.47l6.32,10.8c1.1,2.2,3.68,3.23,5.99,2.39l11.14-4.06c2.31-.84,3.62-3.29,3.05-5.68l-2.11-12.33c2.83-2.06,5.42-4.45,7.76-7.15l12.13,3.17c2.34.78,4.88-.32,5.92-2.55l5-10.75c1.04-2.23.24-4.89-1.86-6.17l-10.23-7.24c.55-3.52.72-7.05.47-10.54l10.8-6.32c2.2-1.1,3.23-3.68,2.39-5.99l-4.06-11.14c-.84-2.31-3.29-3.62-5.68-3.05l-12.34,2.11c-2.06-2.83-4.45-5.42-7.15-7.76l3.17-12.13c.78-2.34-.32-4.88-2.55-5.92l-10.75-5c-2.23-1.04-4.89-.24-6.17,1.86l-7.24,10.23c-3.52-.55-7.05-.72-10.54-.47l-6.32-10.8c-1.1-2.2-3.68-3.23-5.99-2.39l-11.14,4.06c-2.31.84-3.62,3.29-3.05,5.68l2.11,12.34c-2.83,2.06-5.42,4.45-7.76,7.15l-12.13-3.17c-2.34-.78-4.88.32-5.92,2.55l-5,10.75c-1.04,2.23-.24,4.89,1.86,6.17ZM271.66,234.93c8.31,3.87,11.91,13.74,8.04,22.04-3.87,8.31-13.74,11.91-22.04,8.04s-11.91-13.74-8.04-22.05c3.87-8.31,13.74-11.91,22.05-8.04Z"/></svg>