<?xml version="1.0" encoding="UTF-8"?><svg id="Layer_1" xmlns="http://www.w3.org/2000/svg" viewBox="0 0 512 512"><defs><style>.cls-1{stroke-width:.5px;}.cls-1,.cls-2,.cls-3,.cls-4,.cls-5,.cls-6{stroke:#000;stroke-miterlimit:10;}.cls-1,.cls-6{fill:#009051;}.cls-2,.cls-7,.cls-3,.cls-5,.cls-6{fill-rule:evenodd;}.cls-8,.cls-3{fill:#fff;}.cls-5{fill:none;}</style></defs><path class="cls-3" d="M241.24,315.03c-26.01,0-52.03-9.9-71.84-29.71-19.19-19.18-29.76-44.7-29.76-71.83s10.56-52.65,29.76-71.84c39.61-39.6,104.07-39.6,143.67,0,19.19,19.19,29.76,44.7,29.76,71.84s-10.57,52.64-29.76,71.83c-19.81,19.81-45.82,29.71-71.83,29.71h0ZM175.25,147.5c-17.63,17.63-27.33,41.06-27.33,65.99s9.7,48.36,27.33,65.99c36.38,36.38,95.6,36.38,131.99,0,17.63-17.63,27.33-41.06,27.33-65.99s-9.7-48.36-27.33-65.99c-36.39-36.39-95.6-36.39-131.99,0h0ZM172.32,144.57h.01-.01Z"/><path class="cls-2" d="M428.85,371.31l-48.07-48.07c-7.22-7.21-18.4-8.09-26.59-2.62l-9.78-9.78c-1.61-1.62-4.24-1.62-5.84,0-1.62,1.61-1.62,4.23,0,5.84l9.78,9.79c-5.45,8.19-4.57,19.37,2.64,26.57l48.07,48.07c1.86,1.87,4.31,2.8,6.77,2.8s4.9-.93,6.77-2.8l16.26-16.26c3.73-3.73,3.73-9.81,0-13.54Z"/><path class="cls-6" d="M330.81,123.91c-49.39-49.39-129.76-49.39-179.15,0-49.39,49.4-49.39,129.76,0,179.16,24.69,24.69,57.14,37.05,89.58,37.05,23.83,0,47.65-6.69,68.41-20.02,4.61,3.06,9.93,4.6,15.25,4.6,7.1,0,14.19-2.69,19.53-8.03,9.31-9.31,10.57-24.03,3.41-34.77,31.46-49.02,25.8-115.14-17.04-157.98ZM157.49,297.23c-46.17-46.17-46.17-121.3,0-167.47,23.09-23.09,53.41-34.63,83.74-34.63s60.65,11.54,83.72,34.63c46.17,46.17,46.17,121.3,0,167.47-46.17,46.16-121.29,46.16-167.47,0ZM338.58,310.83c-5.69,5.69-14.29,7.1-21.38,4.01,4.74-3.56,9.3-7.47,13.61-11.78,4.31-4.31,8.23-8.88,11.79-13.62,3.08,7.09,1.68,15.68-4.02,21.38Z"/><path class="cls-7" d="M262.24,156.78h-45.18c-1.92,0-3.49-1.55-3.49-3.48s1.56-3.48,3.49-3.48h45.18c1.93,0,3.49,1.56,3.49,3.48s-1.56,3.48-3.49,3.48Z"/><path class="cls-7" d="M262.24,281.34h-45.18c-1.92,0-3.49-1.56-3.49-3.48s1.56-3.49,3.49-3.49h45.18c1.93,0,3.49,1.56,3.49,3.49s-1.56,3.48-3.49,3.48Z"/><path class="cls-5" d="M240.67,260.3c-27.44,0-51.75-17.46-60.5-43.45-.24-.72-.24-1.51,0-2.22,8.75-25.99,33.06-43.44,60.5-43.44s51.75,17.46,60.49,43.44c.24.72.24,1.51,0,2.22-8.74,25.98-33.06,43.45-60.49,43.45h0ZM187.15,215.74c8.11,22.53,29.46,37.59,53.52,37.59s45.4-15.06,53.51-37.59c-8.11-22.54-29.46-37.6-53.51-37.6s-45.41,15.06-53.52,37.6Z"/><circle cx="240.67" cy="215.74" r="28.91"/><circle class="cls-8" cx="240.67" cy="215.74" r="8.19"/><path class="cls-1" d="M247.01,379.04l-8.7-1.58c-.69-2.42-1.64-4.72-2.84-6.88l5.02-7.26c1.08-1.36.97-3.31-.26-4.54l-5.91-5.91c-1.23-1.23-3.18-1.34-4.54-.26l-7.26,5.02c-2.16-1.2-4.46-2.14-6.88-2.84l-1.58-8.7c-.2-1.73-1.66-3.03-3.39-3.03h-8.36c-1.74,0-3.2,1.3-3.39,3.03l-1.58,8.7c-2.42.69-4.72,1.64-6.88,2.84l-7.26-5.02c-1.36-1.08-3.31-.97-4.54.26l-5.91,5.91c-1.23,1.23-1.34,3.18-.26,4.54l5.02,7.26c-1.2,2.16-2.14,4.46-2.84,6.88l-8.7,1.58c-1.73.2-3.03,1.66-3.03,3.39v8.36c0,1.74,1.3,3.2,3.03,3.39l8.7,1.58c.69,2.42,1.64,4.72,2.84,6.88l-5.02,7.26c-1.08,1.36-.97,3.31.26,4.54l5.91,5.91c1.23,1.23,3.18,1.34,4.54.26l7.26-5.02c2.16,1.2,4.46,2.14,6.88,2.84l1.58,8.7c.2,1.73,1.66,3.03,3.39,3.03h8.36c1.74,0,3.2-1.3,3.39-3.03l1.58-8.7c2.42-.69,4.72-1.64,6.88-2.84l7.26,5.02c1.36,1.08,3.31.97,4.54-.26l5.91-5.91c1.23-1.23,1.34-3.18.26-4.54l-5.02-7.26c1.2-2.16,2.14-4.46,2.84-6.88l8.7-1.58c1.73-.2,3.03-1.66,3.03-3.39v-8.36c0-1.74-1.3-3.2-3.03-3.39ZM206.49,398.31c-6.46,0-11.7-5.24-11.7-11.7s5.24-11.7,11.7-11.7,11.7,5.24,11.7,11.7-5.24,11.7-11.7,11.7Z"/><path class="cls-4" d="M158.25,331.26c-11.67,11.67-30.59,11.67-42.25,0-11.67-11.67-11.67-30.59,0-42.25,4.97-4.97,11.26-7.8,17.73-8.54-3-4.89-5.63-9.95-7.9-15.12l-.62,3.4c-3.14.9-6.14,2.13-8.95,3.69l-9.44-6.53c-1.77-1.41-4.31-1.26-5.91.34l-7.69,7.69c-1.6,1.6-1.74,4.14-.34,5.91l6.53,9.44c-1.56,2.8-2.79,5.81-3.69,8.95l-11.32,2.06c-2.24.26-3.94,2.15-3.94,4.41v10.88c0,2.26,1.7,4.16,3.94,4.41l11.32,2.06c.9,3.14,2.13,6.15,3.69,8.95l-6.53,9.44c-1.41,1.77-1.26,4.31.34,5.91l7.69,7.69c1.6,1.6,4.14,1.74,5.91.33l9.44-6.53c2.8,1.56,5.81,2.79,8.95,3.69l2.06,11.32c.25,2.24,2.15,3.94,4.41,3.94h10.88c2.26,0,4.16-1.7,4.41-3.94l2.06-11.32c3.14-.9,6.15-2.13,8.95-3.69l9.44,6.53c1.77,1.41,4.31,1.26,5.91-.33l7.69-7.69c1.6-1.6,1.74-4.14.34-5.91l-6.53-9.44c1.27-2.28,2.31-4.7,3.14-7.22-3.97-2.31-7.83-4.85-11.58-7.63-1.13,5.54-3.83,10.82-8.13,15.12Z"/></svg>