<svg id="Layer_1" data-name="Layer 1" xmlns="http://www.w3.org/2000/svg" viewBox="0 0 409.84591 165.76711"><defs><style>.cls-1{fill:#231f20;}.cls-2{fill:#636363;}</style></defs><path style="fill: rgb(255,255,255);" class="cls-1" d="M81.155,76.32984c0,15.48963-12.30108,27.25846-28.77776,27.25846-16.39924,0-28.70032-11.693-28.70032-27.25846,0-15.48964,12.30108-26.95526,28.70032-26.95526C68.85394,49.37458,81.155,60.916,81.155,76.32984Zm-43.65935.0758c0,8.95927,6.90937,15.86863,15.03483,15.86863,8.19962,0,14.73-6.90936,14.73-15.86863,0-8.96092-6.53037-15.71869-14.73-15.71869C44.32924,60.687,37.49567,67.44472,37.49567,76.40564Z"/><path style="fill: rgb(255,255,255);" class="cls-1" d="M132.03022,82.707c0,12.45268-7.44161,20.7281-18.90724,20.7281a15.14484,15.14484,0,0,1-12.52847-5.92232v20.1975H87.45963V62.05466h13.13488v5.39006a14.91729,14.91729,0,0,1,12.22527-5.84651C124.36121,61.59821,132.03022,70.02687,132.03022,82.707Zm-13.21232-.379c0-6.22716-3.72081-10.63017-9.18668-10.63017-5.31591,0-9.03671,4.403-9.03671,10.63017,0,6.37711,3.7208,10.706,9.03671,10.706C115.09709,93.03392,118.8179,88.62926,118.8179,82.328Z"/><path style="fill: rgb(255,255,255);" class="cls-1" d="M169.464,66.07867l-4.48046,8.50446c-4.93526-2.65795-9.49152-4.09981-12.90747-4.09981-2.35476,0-4.024.90961-4.024,2.80791,0,5.61911,21.56354,2.88536,21.48774,17.16054,0,8.42867-7.36581,13.06073-17.23633,13.06073a30.26984,30.26984,0,0,1-18.375-5.77072l4.17725-8.35286a26.25993,26.25993,0,0,0,14.50094,5.08686c2.58215,0,4.48046-.91125,4.48046-2.80956,0-5.99811-21.18455-2.88535-21.10875-17.23469,0-8.42867,7.13842-12.98492,16.62829-12.98492A33.47278,33.47278,0,0,1,169.464,66.07867Z"/><path style="fill: rgb(255,255,255);" class="cls-2" d="M222.16012,58.33385,214.3395,67.598c-3.49341-4.25306-8.65607-6.911-13.36393-6.911-8.427,0-14.80578,6.682-14.80578,15.41384,0,8.88347,6.37876,15.64123,14.80578,15.64123,4.48046,0,9.64312-2.4289,13.36393-6.22551l7.89642,8.35286c-5.69492,5.84652-14.12194,9.71893-21.94255,9.71893-16.02189,0-27.94231-11.76883-27.94231-27.33426,0-15.338,12.22363-26.87946,28.39711-26.87946A30.8599,30.8599,0,0,1,222.16012,58.33385Z"/><path style="fill: rgb(255,255,255);" class="cls-2" d="M269.38867,77.16364v25.81661H256.25214V80.80865c0-4.78366-2.73376-7.74482-7.21257-7.74482-5.16266,0-8.35286,4.09981-8.35286,9.71892v20.1975H227.55183V46.64082h13.13488v22.1716c2.88535-4.85946,7.669-7.29,13.74293-7.36581C263.46635,61.44661,269.38867,67.598,269.38867,77.16364Z"/><path style="fill: rgb(255,255,255);" class="cls-2" d="M313.73351,76.254v26.72621H300.90018V98.27239c-2.6563,3.4934-6.98516,5.31591-12.52682,5.31591-8.73187,0-14.04778-5.31591-14.04778-12.83333,0-7.74482,5.54331-12.29943,15.717-12.37523h10.78177v-.608c0-4.024-2.6563-6.45456-7.97221-6.45456a28.78276,28.78276,0,0,0-12.22363,3.4176l-3.72081-8.65606c6.37712-2.96116,12.14783-4.63206,18.98139-4.63206C307.12735,61.44661,313.65771,66.98992,313.73351,76.254ZM300.82438,89.08571v-3.645H292.549c-3.9482,0-5.92231,1.36605-5.92231,4.403,0,2.9628,2.12571,4.85946,5.77071,4.85946C296.49717,94.70318,299.99058,92.42587,300.82438,89.08571Z"/><path style="fill: rgb(255,255,255);" class="cls-2" d="M335.44866,50.28583a6.90978,6.90978,0,1,1-13.81873,0,6.90937,6.90937,0,0,1,13.81873,0Zm-13.51553,52.69442V62.05466h13.06073v40.92559Z"/><path style="fill: rgb(255,255,255);" class="cls-2" d="M386.169,77.16364v25.81661H373.10989V80.80865c0-4.78366-2.80956-7.74482-7.21257-7.74482-4.78366,0-7.82226,3.41761-8.35286,8.27707v21.63935H344.40793V62.05466h13.13653v6.682c2.88535-4.78366,7.59321-7.21421,13.66713-7.29C380.24666,61.44661,386.169,67.598,386.169,77.16364Z"/></svg>
