<svg version="1.2" xmlns="http://www.w3.org/2000/svg" viewBox="0 0 451 425" width="451" height="425">
	<title>undraw-security-svg</title>
	<style>
		.s0 { fill: #f1f1f1 } 
		.s1 { fill: #ffffff } 
		.s2 { fill: #3f3d56 } 
		.s3 { fill: #488b65 } 
		.s4 { opacity: .1;fill: #000000 } 
		.s5 { fill: #cacaca } 
		.s6 { fill: #ffb8b8 } 
		.s7 { fill: #2f2e41 } 
		.s8 { fill: #cccccc } 
	</style>
	<path id="Layer" class="s0" d="m747.9 525.4c7.2 12.7 1.1 55.5 1.1 55.5 0 0-39.9-16.8-47.1-29.5-3.4-6.1-4.3-13.3-2.4-20.1 1.8-6.7 6.3-12.5 12.4-15.9 6.1-3.5 13.3-4.3 20.1-2.5 6.7 1.9 12.4 6.4 15.9 12.5z"/>
	<path id="Layer" class="s1" d="m749.6 580.9l-0.9 0.2c-8.1-38.8-36.6-65.1-36.9-65.4l0.6-0.6c0.2 0.3 29 26.7 37.2 65.8z"/>
	<path id="Layer" class="s0" d="m813.2 539.8c-9.8 17.7-64.7 41.7-64.7 41.7 0 0-9.1-59.3 0.6-77 4.7-8.5 12.6-14.8 21.9-17.5 9.3-2.6 19.3-1.5 27.8 3.2 8.5 4.6 14.8 12.5 17.5 21.8 2.7 9.3 1.6 19.3-3.1 27.8z"/>
	<path id="Layer" class="s1" d="m749 582.1l-0.9-0.9c39.8-37.7 50.1-90.4 50.2-90.9l1.2 0.2c-0.1 0.5-10.5 53.6-50.5 91.6z"/>
	<path id="Layer" fill-rule="evenodd" class="s2" d="m192.6 405.9q-2.4 0-4.7-0.1-2.4-0.2-4.7-0.5-2.4-0.3-4.7-0.8-2.3-0.4-4.6-1l-1.2-0.3-1.1-0.6c-40.2-20.2-74.2-46.8-100.9-79.2q-8.3-10.1-15.6-20.9-7.4-10.7-13.8-22.1-6.4-11.4-11.8-23.3-5.4-11.9-9.7-24.2-5.2-14.7-9.1-29.8-3.8-15.2-6.3-30.6-2.5-15.4-3.6-31-1-15.6-0.7-31.2 0-1.3 0-2c0-20.3 11.3-38.1 28.7-45.4 13.3-5.6 134.4-55.3 143.2-58.9 16.5-8.3 34.1-1.4 36.9-0.2 6.3 2.6 118.2 48.4 142.4 59.9 25 11.9 31.6 33.2 31.6 44 0 48.6-8.4 94-25 134.9q-5 12.5-11.1 24.4-6 11.9-13.1 23.3-7 11.4-15 22.1-8 10.7-16.9 20.8c-45.9 51.5-91.7 69.8-92.2 70q-2 0.7-4.1 1.2-2.2 0.6-4.3 0.9-2.1 0.3-4.3 0.5-2.2 0.2-4.3 0.1zm-10.8-26.7c4 0.9 13.1 2.2 19.1 0.1 7.6-2.8 45.9-22.7 81.8-63.1 49.6-55.7 74.7-125.8 74.7-208.3 0-1.7-1.2-13.6-17-21.2-23.7-11.3-140.1-58.8-141.3-59.3l-0.3-0.2c-2.5-1-10.2-3.1-15.6-0.3l-1 0.5c-1.3 0.5-129.9 53.3-143.6 59-9.6 4-13 13.9-13 21.9q0 0.8-0.1 2.5c-1.1 56.4 12 195.3 156.3 268.4z"/>
	<path id="Layer" class="s3" d="m177.3 15.6c0 0-129.7 53.3-143.6 59.1-13.9 5.8-20.9 19.7-20.9 33.6 0 13.9-10.4 195.2 164.5 282.9 0 0 15.9 4.4 27.9 0 12.1-4.4 165-78.5 165-283.5 0 0 0-20.9-24.3-32.5-24.4-11.5-142-59.6-142-59.6 0 0-14.4-6.4-26.6 0z"/>
	<path id="Layer" class="s4" d="m191.2 57.3v284.2c0 0-130.9-63-129.7-228.6z"/>
	<path id="Layer" class="s1" d="m192.9 261.6l-41.7-53.6 24.3-18.9 19.7 25.4 66.7-70.4 22.3 21.1-91.3 96.4z"/>
	<path id="Layer" class="s5" d="m818.1 584h-381q-0.4 0-0.7-0.3-0.3-0.3-0.3-0.7 0-0.4 0.3-0.7 0.3-0.3 0.7-0.3h381q0.4 0 0.7 0.3 0.3 0.3 0.3 0.7 0 0.4-0.3 0.7-0.3 0.3-0.7 0.3z"/>
	<path id="Layer" class="s6" d="m547.2 568.2h15.5l7.3-59.6h-22.8v59.6z"/>
	<path id="Layer" class="s7" d="m543.3 563.2h30.4c2.6 0 5.1 0.5 7.4 1.5 2.4 0.9 4.5 2.4 6.3 4.2 1.8 1.8 3.3 3.9 4.3 6.3 0.9 2.3 1.4 4.8 1.4 7.4v0.6h-49.8z"/>
	<path id="Layer" class="s6" d="m599.2 568.2h15.5l7.3-59.6h-22.8v59.6z"/>
	<path id="Layer" class="s7" d="m595.3 563.2h30.4c2.6 0 5.1 0.5 7.4 1.5 2.4 0.9 4.5 2.4 6.3 4.2 1.8 1.8 3.3 3.9 4.3 6.3 0.9 2.3 1.4 4.8 1.4 7.4v0.6h-49.8z"/>
	<path id="Layer" class="s7" d="m571.5 358.8l3.7 189.2-30-1.9-20.8-120.5-6.6-82.2 53.7 15.4z"/>
	<path id="Layer" class="s7" d="m623 327l4.2 224-35-1-7.5-133.2-13.2-48.2-53.7-25.2 8.8-60.3 78.9-1.1z"/>
	<path id="Layer" class="s6" d="m562.7 126.4c-14.9 0-26.9-12-26.9-26.8 0-14.8 12-26.8 26.9-26.8 14.8 0 26.8 12 26.8 26.8 0 14.8-12 26.8-26.8 26.8z"/>
	<path id="Layer" class="s8" d="m584.9 137.7l4.1 6.3 11 30.6-8.8 119.5-51.5 1.1-6.5-137 13.7-17.2 38-3.3z"/>
	<path id="Layer" class="s7" d="m512.3 161.5l-8.7-1.1c0 0-2.2 1.1-3.3 8.8-1.1 7.6-14.3 75.6-14.3 75.6l17.6 83.3 19.7-26.3-12.1-46.1 12.1-46z"/>
	<path id="Layer" class="s7" d="m624.1 160.4h6.6l16.4 88.8-15.3 69-15.4-25.2 4.4-27.4-2.2-24.1-7.6-14.3 13.1-66.8z"/>
	<path id="Layer" class="s7" d="m578.5 99.6l-4.8-1.2c0 0-3.7-20.8-12.2-18.3-8.6 2.4-30.5 4.9-30.5-4.9 0-9.8 20.7-18.3 32.9-17.1 12.2 1.2 27.8 5.3 31.7 23.2 6.3 28.7-13 36-13 36l0.3-1.1q0.7-2.2 0.7-4.4 0.1-2.3-0.5-4.5-0.6-2.2-1.7-4.2-1.2-1.9-2.9-3.5z"/>
	<path id="Layer" class="s7" d="m504.7 160.4l35-14.2 8.3-6.1 24.6 109.1 11.5-112.4 45.5 23.6-15.3 74.5-2.2 28.5 6.5 23c0 0 23 16.5 15.4 34-7.7 17.5-16.5 18.6-16.5 18.6 0 0-37.2-35-39.4-43.8-2.2-8.8-5.5-24.1-5.5-24.1 0 0-18.6 70.1-40.5 69-22-1.1-22-24.1-22-24.1l5.5-24.1 8.8-25.2-4.4-41.6z"/>
</svg>